#!OML:ASF H:\Dans Jumps\Project 1\Capture day 1\Session 1\subject.ASF
:FULLY-SPECIFIED
:DEGREES
264
root 0.516266 14.3603 -14.5745 35.5455 1.4807 -2.39931
lowerback 32.167 1.40965 -0.698046
upperback 1.15494 2.03831 2.90162
thorax -15.666 1.03559 2.7023
lowerneck -24.8233 -0.692431 -1.56139
upperneck -3.19048 -0.419918 -1.27873
head 2.78939 -0.272782 -0.19463
rclavicle 1.15295e-014 2.98177e-014
rhumerus -15.5833 -21.4138 -73.5989
rradius 24.384
rwrist 32.7817
rhand -25.1548 -24.7975
rfingers 7.12502
rthumb 1.36205 -54.7729
lclavicle 1.15295e-014 2.98177e-014
lhumerus -12.4865 34.8461 75.6189
lradius 10.7327
lwrist -18.9987
lhand -27.7667 -9.91271
lfingers 7.12502
lthumb -1.16063 20.0639
rfemur -78.3014 0.160548 23.0213
rtibia 80.5172
rfoot -34.3382 -20.6727
rtoes 4.25513
lfemur -79.7692 4.91146 -19.8352
ltibia 80.3564
lfoot -27.2452 25.4858
ltoes -9.06544
265
root 0.514089 14.469 -14.4219 35.3216 1.43698 -2.43976
lowerback 31.5464 1.44512 -0.755231
upperback 0.959163 2.06618 2.88743
thorax -15.6264 1.05631 2.71415
lowerneck -25.0016 -0.672033 -1.52745
upperneck -2.37622 -0.387055 -1.23502
head 3.068 -0.262232 -0.185692
rclavicle 8.34896e-015 8.15017e-015
rhumerus -13.6474 -19.8478 -74.5554
rradius 25.4883
rwrist 31.7321
rhand -25.3135 -24.997
rfingers 7.12502
rthumb 1.20874 -54.9733
lclavicle 8.34896e-015 8.15017e-015
lhumerus -10.0227 30.7265 77.544
lradius 11.8036
lwrist -14.849
lhand -28.0073 -9.82208
lfingers 7.12502
lthumb -1.393 20.1531
rfemur -76.6292 0.0997333 23.0949
rtibia 79.2178
rfoot -34.2779 -20.834
rtoes 3.02825
lfemur -78.1091 5.10233 -19.7703
ltibia 79.1224
lfoot -27.184 25.5607
ltoes -10.1304
266
root 0.512314 14.5857 -14.2589 35.0148 1.38834 -2.48034
lowerback 30.9362 1.47469 -0.816168
upperback 0.767582 2.08653 2.87752
thorax -15.5823 1.07418 2.73629
lowerneck -25.1242 -0.634742 -1.46718
upperneck -1.53874 -0.339756 -1.2205
head 3.3476 -0.245924 -0.188397
rclavicle -3.97569e-016 -1.35174e-014
rhumerus -11.8815 -18.2401 -75.3595
rradius 26.5811
rwrist 30.8648
rhand -25.4872 -25.1584
rfingers 7.12502
rthumb 1.04107 -55.1356
lclavicle -3.97569e-016 -1.35174e-014
lhumerus -8.01254 26.9643 78.9185
lradius 12.8937
lwrist -11.2571
lhand -28.2577 -9.8362
lfingers 7.12502
lthumb -1.63483 20.1373
rfemur -74.7588 0.00841012 23.1785
rtibia 77.7904
rfoot -34.1906 -20.9863
rtoes 1.66037
lfemur -76.2532 5.34396 -19.7241
ltibia 77.7649
lfoot -27.1545 25.5727
ltoes -11.2852
267
root 0.511183 14.7113 -14.085 34.6153 1.34891 -2.51681
lowerback 30.3442 1.49027 -0.867338
upperback 0.588964 2.09337 2.8724
thorax -15.5263 1.08547 2.76409
lowerneck -25.2368 -0.591579 -1.40616
upperneck -0.652506 -0.285403 -1.20636
head 3.62099 -0.226072 -0.193622
rclavicle 1.31198e-014 7.95139e-016
rhumerus -10.2722 -16.5777 -76.0363
rradius 27.6624
rwrist 30.1014
rhand -25.6559 -25.2773
rfingers 7.12502
rthumb 0.878106 -55.2552
lclavicle 1.31198e-014 7.95139e-016
lhumerus -6.33275 23.4858 79.9051
lradius 14.0201
lwrist -7.99664
lhand -28.5421 -9.87004
lfingers 7.12502
lthumb -1.90949 20.1012
rfemur -72.6659 -0.122769 23.2691
rtibia 76.2209
rfoot -34.0886 -21.1063
rtoes 0.304662
lfemur -74.1777 5.61736 -19.6846
ltibia 76.2626
lfoot -27.1598 25.5121
ltoes -12.4535
268
root 0.510527 14.845 -13.9002 34.128 1.33836 -2.53441
lowerback 29.7549 1.48354 -0.901588
upperback 0.428545 2.07795 2.87229
thorax -15.4446 1.08569 2.79732
lowerneck -25.245 -0.54512 -1.33827
upperneck 0.183532 -0.231637 -1.20067
head 3.88851 -0.205992 -0.198747
rclavicle 1.47101e-014 2.14687e-014
rhumerus -8.81004 -14.8656 -76.6009
rradius 28.7271
rwrist 29.354
rhand -25.7826 -25.376
rfingers 7.12502
rthumb 0.755674 -55.3544
lclavicle 1.47101e-014 2.14687e-014
lhumerus -4.91631 20.2726 80.6044
lradius 15.1813
lwrist -4.96857
lhand -28.7745 -9.88646
lfingers 7.12502
lthumb -2.13397 20.0826
rfemur -70.3578 -0.308706 23.3539
rtibia 74.5068
rfoot -33.9579 -21.1831
rtoes -1.00885
lfemur -71.8913 5.90285 -19.6536
ltibia 74.6047
lfoot -27.1606 25.3761
ltoes -13.6388
269
root 0.509938 14.9887 -13.7027 33.5075 1.40652 -2.50337
lowerback 29.2147 1.43304 -0.900304
upperback 0.294921 2.01791 2.8761
thorax -15.3468 1.06334 2.83248
lowerneck -25.2114 -0.512469 -1.29666
upperneck 1.03993 -0.19233 -1.15932
head 4.15767 -0.19046 -0.189495
rclavicle 4.77083e-015 2.0276e-014
rhumerus -7.49813 -13.146 -77.068
rradius 29.7537
rwrist 28.6394
rhand -25.8649 -25.4611
rfingers 7.12502
rthumb 0.676267 -55.4398
lclavicle 4.77083e-015 2.0276e-014
lhumerus -3.73166 17.3509 81.0813
lradius 16.3667
lwrist -2.16837
lhand -28.8823 -9.87623
lfingers 7.12502
lthumb -2.23804 20.0918
rfemur -67.7581 -0.58713 23.4159
rtibia 72.6339
rfoot -33.82 -21.2107
rtoes -2.25893
lfemur -69.3185 6.14605 -19.6163
ltibia 72.7659
lfoot -27.1397 25.1686
ltoes -14.8537
270
root 0.509132 15.1389 -13.4944 32.8108 1.49853 -2.45026
lowerback 28.6547 1.36773 -0.898814
upperback 0.176817 1.93772 2.87919
thorax -15.2171 1.0316 2.87436
lowerneck -25.1011 -0.488485 -1.26014
upperneck 1.90443 -0.166377 -1.10314
head 4.43676 -0.180037 -0.172732
rclavicle 1.03368e-014 9.54166e-015
rhumerus -6.34395 -11.4746 -77.4554
rradius 30.719
rwrist 28.0091
rhand -25.8444 -25.5988
rfingers 7.12502
rthumb 0.696018 -55.5775
lclavicle 1.03368e-014 9.54166e-015
lhumerus -2.78141 14.6928 81.3855
lradius 17.561
lwrist 0.371554
lhand -28.9251 -9.8499
lfingers 7.12502
lthumb -2.27934 20.1177
rfemur -64.9539 -0.881402 23.4323
rtibia 70.6048
rfoot -33.6261 -21.1828
rtoes -3.51782
lfemur -66.5384 6.38635 -19.5649
ltibia 70.7539
lfoot -27.0703 24.8806
ltoes -16.0941
271
root 0.508195 15.2953 -13.2743 32.0341 1.62347 -2.36947
lowerback 28.0632 1.28222 -0.892203
upperback 0.0774996 1.83111 2.87769
thorax -15.0451 0.986972 2.91819
lowerneck -24.995 -0.486336 -1.25542
upperneck 2.88579 -0.163427 -1.00597
head 4.73615 -0.178623 -0.143355
rclavicle 6.75868e-015 2.18663e-014
rhumerus -5.3538 -9.91907 -77.7915
rradius 31.614
rwrist 27.5019
rhand -25.7357 -25.7747
rfingers 7.12502
rthumb 0.801021 -55.753
lclavicle 6.75868e-015 2.18663e-014
lhumerus -2.05562 12.3154 81.5588
lradius 18.7189
lwrist 2.59894
lhand -28.9462 -9.86991
lfingers 7.12502
lthumb -2.29978 20.0974
rfemur -61.9362 -1.18622 23.3886
rtibia 68.4161
rfoot -33.3706 -21.0897
rtoes -4.83862
lfemur -63.5413 6.59663 -19.4827
ltibia 68.563
lfoot -26.9172 24.5221
ltoes -17.3987
272
root 0.507172 15.4565 -13.0427 31.1844 1.7528 -2.27805
lowerback 27.4163 1.19132 -0.89647
upperback 0.00043349 1.71227 2.87412
thorax -14.8168 0.936677 2.96967
lowerneck -24.8351 -0.497876 -1.26225
upperneck 3.94619 -0.177302 -0.905247
head 5.05445 -0.185243 -0.112684
rclavicle -5.56597e-015 -1.19271e-014
rhumerus -4.54329 -8.54887 -78.098
rradius 32.4391
rwrist 27.1441
rhand -25.5901 -25.933
rfingers 7.12502
rthumb 0.941653 -55.9107
lclavicle -5.56597e-015 -1.19271e-014
lhumerus -1.54084 10.2227 81.6472
lradius 19.796
lwrist 4.51806
lhand -29.0058 -9.9345
lfingers 7.12502
lthumb -2.35727 20.0322
rfemur -58.7235 -1.45356 23.2773
rtibia 66.0763
rfoot -33.0229 -20.9334
rtoes -6.25499
lfemur -60.3416 6.78945 -19.3561
ltibia 66.2051
lfoot -26.6741 24.0793
ltoes -18.7103
273
root 0.506232 15.6214 -12.8 30.2833 1.87106 -2.18062
lowerback 26.6981 1.10269 -0.916783
upperback 0.25954 1.5791 2.75958
thorax -14.8446 0.912567 3.13067
lowerneck -24.6068 -0.518824 -1.26961
upperneck 5.07602 -0.203043 -0.828601
head 5.38652 -0.199397 -0.0908613
rclavicle 7.15625e-015 9.54166e-015
rhumerus -3.91795 -7.41312 -78.401
rradius 33.2034
rwrist 26.867
rhand -25.5487 -25.9603
rfingers 7.12502
rthumb 0.981615 -55.9378
lclavicle 7.15625e-015 9.54166e-015
lhumerus -1.2026 8.42348 81.6961
lradius 20.7346
lwrist 6.14794
lhand -29.1261 -10.0984
lfingers 7.12502
lthumb -2.47349 19.867
rfemur -55.3655 -1.67507 23.1055
rtibia 63.6097
rfoot -32.5402 -20.6995
rtoes -7.75594
lfemur -56.9844 6.96821 -19.1904
ltibia 63.6985
lfoot -26.3076 23.5463
ltoes -20.0225
274
root 0.505483 15.7888 -12.546 29.3314 1.98225 -2.06754
lowerback 25.8485 1.01596 -0.959797
upperback 0.214821 1.45125 2.75681
thorax -14.4155 0.85566 3.19773
lowerneck -24.2724 -0.53793 -1.25419
upperneck 6.23842 -0.228523 -0.813748
head 5.71465 -0.217603 -0.0924091
rclavicle 8.74653e-015 -4.77083e-015
rhumerus -3.49157 -6.53577 -78.7165
rradius 33.9359
rwrist 26.5802
rhand -25.6038 -25.8509
rfingers 7.12502
rthumb 0.928415 -55.8287
lclavicle 8.74653e-015 -4.77083e-015
lhumerus -1.0024 6.91964 81.7447
lradius 21.4925
lwrist 7.53102
lhand -29.2643 -10.3171
lfingers 7.12502
lthumb -2.60692 19.6467
rfemur -51.9628 -1.8719 22.8833
rtibia 61.2635
rfoot -32.0204 -20.403
rtoes -9.33722
lfemur -53.5675 7.13235 -19.0065
ltibia 61.2834
lfoot -25.9255 22.9618
ltoes -21.3067
